PathFileType	4	(X/Y/Z)	/Users/mathieubourgeois/Desktop/Analyse/Traitement/Sujet_02/Data/Transformed_Sujet_02_velo_100.trc
DataRate	CameraRate	NumFrames	NumMarkers	Units	OrigDataRate	OrigDataStartFrame	OrigNumFrames
120.000000	120.000000	4	36	mm	120.000000	0	1882
Frame#	Time	RFHD			RANE			STRN			LANI			LKNE			T10			RHUM			RWRB			C7			LFWT			LTOE			RTOE			LWRA			LBWT			RBWT			RFWT			LKNI			RKNI			RKNE			LANE			RANI			LHEE			RHEE			LHUM			LRAD			RRAD			RWRA			LWRB			LFHD			LBHD			RBHD			RSHO			LSHO			CLAV			LCAR			RCAR			
		X1	Y1	Z1	X2	Y2	Z2	X3	Y3	Z3	X4	Y4	Z4	X5	Y5	Z5	X6	Y6	Z6	X7	Y7	Z7	X8	Y8	Z8	X9	Y9	Z9	X10	Y10	Z10	X11	Y11	Z11	X12	Y12	Z12	X13	Y13	Z13	X14	Y14	Z14	X15	Y15	Z15	X16	Y16	Z16	X17	Y17	Z17	X18	Y18	Z18	X19	Y19	Z19	X20	Y20	Z20	X21	Y21	Z21	X22	Y22	Z22	X23	Y23	Z23	X24	Y24	Z24	X25	Y25	Z25	X26	Y26	Z26	X27	Y27	Z27	X28	Y28	Z28	X29	Y29	Z29	X30	Y30	Z30	X31	Y31	Z31	X32	Y32	Z32	X33	Y33	Z33	X34	Y34	Z34	X35	Y35	Z35	X36	Y36	Z36	

1	0	80.7603073120117	1457.223754882812	95.69302368164055	-358.89697265625	322.0328369140625	174.0473480224609	-209.3314971923828	1277.233032226562	17.63619995117177	-150.2245941162109	558.1837158203125	-65.52747344970707	-46.13943481445311	964.1591186523438	-122.4308547973633	-358.2701110839844	1512.83447265625	17.06521606445299	-57.32052993774417	1180.778564453125	218.8664550781249	178.294204711914	1028.38623046875	160.3969268798828	-136.4437255859375	1561.298461914062	1.788914561271555	-398.6332702636719	1221.302368164062	-89.23525238037121	46.49838638305665	515.5643310546875	-128.0878448486328	-172.98876953125	194.6817321777344	151.774917602539	217.207504272461	1044.9580078125	-161.7464447021485	-588.8276977539062	1206.112182617188	-46.44539260864272	-589.6082153320312	1212.348510742188	75.14355468749986	-417.0306396484375	1228.8857421875	177.1679077148436	-4.146352767944334	938.5670166015625	-17.21959686279303	-154.9799652099609	713.14111328125	104.8715133666992	-205.8245239257813	754.43701171875	203.447784423828	-175.1275177001953	547.8445434570312	-157.493637084961	-325.9207763671875	331.5806884765625	89.01887512207026	-241.9407653808593	503.8363952636719	-116.1821365356446	-433.5290832519531	315.7376098632812	119.968162536621	-31.35923194885251	1196.267700195312	-192.2514648437501	25.87970733642581	1236.34130859375	-218.435531616211	-5.429286956787141	1227.405883789062	263.8190002441406	206.7593078613281	1056.221557617188	220.3626556396484	178.7610931396484	1020.968444824219	-102.3989334106446	71.72812652587891	1411.698364257812	-40.73752593994148	3.319314002990731	1546.6181640625	-69.6770019531251	14.0071678161621	1581.122680664062	85.49179840087881	-111.5262451171875	1513.603515625	155.1328124999999	-106.1244964599609	1502.852172851562	-132.7307434082032	-101.1464614868164	1415.90625	-4.651032924652199	290.1226501464844	1041.343872070312	-72.5796356201172	295.3497924804688	1014.328125	144.0815277099609	
2	0.008333333333333333	80.72344970703124	1457.116088867188	95.82266998291009	-366.6998596191406	334.3618774414062	174.1065216064452	-209.7093658447266	1277.213256835938	17.72640800476064	-142.9006500244141	544.3240966796875	-66.03486633300786	-49.23478698730467	953.7280883789062	-123.4472351074219	-358.5245666503906	1512.67333984375	17.3072471618651	-57.60892486572268	1180.579956054688	219.1044311523437	178.1156921386718	1028.392944335938	160.4839477539062	-136.7803192138672	1561.2919921875	2.358285665511973	-398.8059997558594	1220.874267578125	-89.83889770507824	55.35644531250001	506.2520446777344	-128.314926147461	-183.6187133789063	203.1031036376953	151.9949951171875	217.0978546142578	1045.152954101562	-161.6798858642578	-589.1880493164062	1205.672485351562	-46.64083099365249	-590.1185302734375	1212.072265625	74.91452026367173	-417.4985656738281	1228.959594726562	176.6909790039061	-6.577651023864743	928.7727661132812	-18.93378639221197	-149.4990081787109	718.331787109375	106.7733535766601	-200.1552276611328	760.1727294921875	205.3712921142577	-166.8929595947265	532.405029296875	-157.7225189208985	-333.3356628417969	343.27880859375	89.10751342773432	-232.7286987304687	487.8873291015625	-116.8106079101563	-441.4338073730469	329.7652893066406	119.9594116210937	-31.37977218627927	1196.746459960938	-191.8143768310548	25.86152076721194	1236.849365234375	-217.9403686523438	-5.75256395339969	1227.168212890625	264.1097412109374	206.5599060058593	1056.17529296875	220.4978332519531	178.6803588867188	1021.161499023438	-102.336051940918	71.43411254882812	1411.8203125	-40.70947647094734	2.985328674316415	1546.762817382812	-69.21128082275401	13.92632293701171	1581.064819335938	85.96842193603506	-111.9528274536133	1513.448608398438	155.6774444580077	-106.3356857299805	1503.156616210938	-132.0983886718751	-101.5584411621094	1415.908081054688	-4.149383544921974	290.0648803710938	1041.311767578125	-72.52970123291018	295.1801147460938	1014.418884277344	144.1425323486328	
3	0.01666666666666667	80.67348480224608	1457.003540039062	96.10566711425774	-373.3994140625	347.3700561523438	174.1919403076171	-210.0536346435547	1277.205444335938	17.83743667602529	-136.0689086914062	529.1503295898438	-65.68499755859379	-52.69299316406249	942.0582885742188	-124.2275695800782	-358.7998046875	1512.463134765625	17.56791114807115	-57.90996551513675	1180.40625	219.3824615478515	177.940185546875	1028.40576171875	160.5716857910156	-137.2104034423828	1561.314453125	3.125530719756968	-398.9236450195312	1220.321899414062	-90.51210784912121	63.1087112426758	495.4908142089844	-128.8298645019532	-193.209716796875	212.1969146728516	152.1705169677734	217.0406646728516	1045.342895507812	-161.5536499023438	-589.50244140625	1205.274780273438	-46.92588806152358	-590.5758056640625	1211.794677734375	74.61040496826158	-417.9836730957031	1228.878295898438	176.0916748046874	-9.658121109008787	917.66845703125	-20.33255004882818	-143.7260437011719	723.935791015625	108.6098709106445	-194.1275787353516	766.425537109375	207.3606872558593	-159.667495727539	517.2401123046875	-158.7969970703126	-339.5301818847656	355.5646057128906	89.14027404785149	-224.7624816894531	471.0155639648438	-117.3462829589844	-448.2471618652344	344.4391479492188	119.9164276123046	-31.30543136596677	1197.31494140625	-191.286102294922	25.96158790588381	1237.416870117188	-217.3241424560548	-6.051996707916292	1226.968872070312	264.4215087890624	206.3664245605468	1056.159301757812	220.6193695068359	178.6565093994141	1021.312683105469	-102.2255477905274	71.22270202636719	1411.900146484375	-40.5181198120118	2.803914070129403	1546.824829101562	-68.65570068359385	13.85738849639892	1580.99755859375	86.44789123535146	-112.4730453491211	1513.316528320312	156.2681427001952	-106.5373611450195	1503.505249023438	-131.3711395263673	-102.0523376464844	1415.911743164062	-3.529001712799171	290.0414733886719	1041.264526367188	-72.42641448974612	295.0072937011719	1014.514404296875	144.2307586669922	
4	0.025	80.05234527587889	1456.321044921875	96.83337402343743	-379.07275390625	361.91943359375	174.750274658203	-210.2350769042969	1277.18896484375	17.98491859436025	-128.5845489501953	512.531982421875	-66.36154174804692	-56.65103530883788	930.6978149414062	-125.5685348510743	-359.1044006347656	1512.215454101562	17.80985450744615	-58.17512130737308	1180.234252929688	219.7455139160155	177.7702941894531	1028.164794921875	160.1901550292968	-137.6372528076172	1561.3076171875	3.873238563537485	-398.9621276855469	1219.650634765625	-91.17393493652355	70.12248992919923	482.9439697265625	-129.228759765625	-201.8455047607422	222.3323974609375	152.3684539794922	218.5874481201172	1046.098022460938	-161.4439239501953	-589.7632446289062	1204.601440429688	-47.19095993042006	-590.994384765625	1211.503662109375	74.24853515624986	-418.6090698242188	1229.514892578125	175.9402465820311	-13.15035629272461	905.8901977539062	-21.71182250976568	-136.5534515380859	729.6976928710938	110.0975341796874	-187.4579315185547	773.3001708984375	210.1580963134765	-152.9061279296875	500.9073791503906	-158.9782257080079	-344.9733581542969	368.918212890625	89.19352722167962	-217.4608612060547	454.4477233886719	-117.9487609863282	-453.8819885253906	360.0708312988281	120.0486907958984	-31.09592247009275	1197.882080078125	-190.5868530273438	26.14726829528811	1237.990600585938	-216.5757751464845	-6.379287242889437	1226.784545898438	264.7967834472656	206.0478515625	1056.208374023438	220.4052581787109	178.8009490966797	1020.965698242188	-101.966423034668	71.16569519042969	1412.007568359375	-40.04328536987313	3.212337255477914	1546.849731445312	-67.65248870849619	13.41111469268798	1580.347290039062	87.1149902343749	-112.9722900390625	1512.685791015625	156.9258880615234	-106.7614212036133	1503.99658203125	-130.7681121826173	-102.4290924072266	1415.866333007812	-2.855800390243629	289.2712097167969	1042.06298828125	-71.04223632812503	294.8626403808594	1014.696655273438	144.3092346191406	
